<svg width="29" height="38" viewBox="0 0 29 38" fill="none" xmlns="http://www.w3.org/2000/svg">
<path d="M14.2917 17.8142C12.938 17.8142 11.6397 17.3203 10.6825 16.4411C9.72526 15.562 9.1875 14.3696 9.1875 13.1262C9.1875 11.8829 9.72526 10.6905 10.6825 9.81137C11.6397 8.93221 12.938 8.4383 14.2917 8.4383C15.6454 8.4383 16.9436 8.93221 17.9009 9.81137C18.8581 10.6905 19.3958 11.8829 19.3958 13.1262C19.3958 13.7419 19.2638 14.3515 19.0073 14.9202C18.7508 15.489 18.3748 16.0058 17.9009 16.4411C17.4269 16.8764 16.8642 17.2217 16.2449 17.4573C15.6257 17.6929 14.962 17.8142 14.2917 17.8142ZM14.2917 0C10.5013 0 6.86614 1.38294 4.18593 3.84459C1.50572 6.30623 0 9.64495 0 13.1262C0 22.9709 14.2917 37.5035 14.2917 37.5035C14.2917 37.5035 28.5833 22.9709 28.5833 13.1262C28.5833 9.64495 27.0776 6.30623 24.3974 3.84459C21.7172 1.38294 18.0821 0 14.2917 0Z" fill="url(#paint0_linear_522_796)"/>
<defs>
<linearGradient id="paint0_linear_522_796" x1="14.2917" y1="0" x2="14.2917" y2="37.5035" gradientUnits="userSpaceOnUse">
<stop stop-color="#0E6097"/>
<stop offset="1" stop-color="#0E6097"/>
</linearGradient>
</defs>
</svg>
