<svg width="30" height="28" viewBox="0 0 30 28" fill="none" xmlns="http://www.w3.org/2000/svg">
<path d="M28.6667 3.09341C28.464 2.97639 28.234 2.91478 28 2.91478C27.766 2.91478 27.536 2.97639 27.3333 3.09341C24.7486 4.17996 21.9631 4.70707 19.16 4.64008C16.745 4.46338 14.3931 3.78686 12.2533 2.65341C10.1954 1.54156 7.93063 0.865302 5.6 0.666748C3.67659 0.668846 1.77287 1.05412 0 1.80008V24.6667C1.73712 23.7163 3.68653 23.2209 5.66667 23.2267C7.62751 23.4213 9.53062 24.0013 11.2667 24.9334C13.7469 26.2285 16.4735 26.9829 19.2667 27.1467C22.4727 27.2134 25.6556 26.5904 28.6 25.3201C28.8199 25.2093 29.0048 25.0398 29.1342 24.8303C29.2637 24.6208 29.3326 24.3796 29.3333 24.1334V4.22675C29.3296 3.99633 29.2663 3.77082 29.1494 3.57219C29.0326 3.37356 28.8663 3.20861 28.6667 3.09341Z" fill="url(#paint0_linear_522_808)"/>
<defs>
<linearGradient id="paint0_linear_522_808" x1="14.6667" y1="0.666748" x2="14.6667" y2="27.1516" gradientUnits="userSpaceOnUse">
<stop stop-color="#0E6097"/>
<stop offset="1" stop-color="#0E6097"/>
</linearGradient>
</defs>
</svg>
