<svg width="51" height="51" viewBox="0 0 51 51" fill="none" xmlns="http://www.w3.org/2000/svg">
<path d="M27.6269 42.5329C28.1904 42.5329 28.7309 42.7568 29.1295 43.1553C29.528 43.5538 29.7519 44.0943 29.7519 44.6579C29.7519 45.2215 29.528 45.762 29.1295 46.1605C28.7309 46.559 28.1904 46.7829 27.6269 46.7829C27.0633 46.7829 26.5228 46.559 26.1243 46.1605C25.7257 45.762 25.5019 45.2215 25.5019 44.6579C25.5019 44.0943 25.7257 43.5538 26.1243 43.1553C26.5228 42.7568 27.0633 42.5329 27.6269 42.5329ZM20.1894 40.4079C20.7529 40.4079 21.2934 40.6318 21.692 41.0303C22.0905 41.4288 22.3144 41.9693 22.3144 42.5329C22.3144 43.0965 22.0905 43.637 21.692 44.0355C21.2934 44.434 20.7529 44.6579 20.1894 44.6579C19.6258 44.6579 19.0853 44.434 18.6867 44.0355C18.2882 43.637 18.0644 43.0965 18.0644 42.5329C18.0644 41.9693 18.2882 41.4288 18.6867 41.0303C19.0853 40.6318 19.6258 40.4079 20.1894 40.4079ZM35.0644 40.4079C35.6279 40.4079 36.1684 40.6318 36.567 41.0303C36.9655 41.4288 37.1894 41.9693 37.1894 42.5329C37.1894 43.0965 36.9655 43.637 36.567 44.0355C36.1684 44.434 35.6279 44.6579 35.0644 44.6579C34.5008 44.6579 33.9603 44.434 33.5618 44.0355C33.1632 43.637 32.9394 43.0965 32.9394 42.5329C32.9394 41.9693 33.1632 41.4288 33.5618 41.0303C33.9603 40.6318 34.5008 40.4079 35.0644 40.4079ZM27.6258 12.7606C34.3589 12.7606 38.1785 17.2167 38.7342 22.5993H38.9042C43.2371 22.5993 46.7497 26.1024 46.7497 30.4246C46.7497 34.7469 43.2371 38.25 38.9042 38.25H16.3474C12.0145 38.25 8.50185 34.7469 8.50185 30.4246C8.50185 26.1024 12.0145 22.5993 16.3474 22.5993H16.5174C17.0762 17.1816 20.8927 12.7606 27.6258 12.7606ZM27.6258 15.4115C23.0985 15.4115 19.1524 19.075 19.1524 24.1346C19.1524 24.9368 18.4553 25.5658 17.6564 25.5658H16.1476C13.3915 25.5658 11.157 27.812 11.157 30.5819C11.157 33.3529 13.3915 35.599 16.1476 35.599H39.104C41.8601 35.599 44.0945 33.3529 44.0945 30.5819C44.0945 27.812 41.8601 25.5669 39.104 25.5669H37.5952C36.7962 25.5669 36.0992 24.9368 36.0992 24.1346C36.0992 19.0102 32.1531 15.4115 27.6258 15.4115ZM9.25516 21.5719C9.38009 21.8742 9.38852 22.212 9.27881 22.5201C9.16911 22.8282 8.94907 23.0847 8.66122 23.24L8.53904 23.2985L6.0836 24.3206C5.77111 24.4477 5.42185 24.4505 5.10736 24.3284C4.79287 24.2064 4.53695 23.9687 4.39204 23.664C4.24712 23.3594 4.22417 23.0109 4.32789 22.6899C4.43161 22.3688 4.65414 22.0996 4.94991 21.9374L5.0721 21.879L7.5286 20.8568C7.85227 20.7231 8.21576 20.7233 8.53928 20.8574C8.8628 20.9915 9.12095 21.2484 9.25516 21.5719ZM23.0666 11.3294L23.0007 11.3496C22.019 11.6705 21.1052 12.0955 20.2701 12.614C19.129 12.1311 17.864 12.0235 16.6577 12.3066C15.4514 12.5897 14.3664 13.2489 13.5592 14.1889C12.7521 15.129 12.2646 16.3013 12.1672 17.5365C12.0698 18.7717 12.3676 20.0059 13.0175 21.0608C12.218 21.3466 11.4587 21.7344 10.7586 22.2147C9.78102 20.5405 9.41451 18.579 9.72158 16.6648C10.0286 14.7505 10.9903 13.0021 12.4425 11.7176C13.8946 10.4332 15.7474 9.69228 17.6848 9.62129C19.6223 9.5503 21.5243 10.1536 23.0666 11.3283M5.92954 11.5185L6.06447 11.5674L8.52841 12.6182C9.19779 12.9008 9.51866 13.6754 9.2456 14.348C8.9906 14.977 8.30741 15.2936 7.6731 15.1034L7.53922 15.0556L5.07422 14.0037C4.75248 13.8662 4.49738 13.6081 4.36353 13.2848C4.22969 12.9615 4.22774 12.5987 4.3581 12.274C4.6131 11.646 5.29522 11.3283 5.92954 11.5185ZM13.7591 4.95864L13.8175 5.08189L14.8375 7.53202C14.9655 7.84609 14.9685 8.19721 14.8459 8.5134C14.7232 8.82959 14.4843 9.08689 14.178 9.23255C13.8718 9.37821 13.5214 9.40119 13.1987 9.29678C12.876 9.19237 12.6055 8.96848 12.4427 8.67102L12.3842 8.54883L11.3642 6.09871C11.2349 5.78442 11.231 5.43253 11.3533 5.11544C11.4755 4.79835 11.7147 4.5402 12.0216 4.39412C12.3284 4.24805 12.6796 4.22516 13.0028 4.33017C13.326 4.43519 13.5967 4.66011 13.7591 4.95864ZM23.3737 4.36364C24.0133 4.62927 24.3384 5.33052 24.1493 5.97971L24.1004 6.11783L23.0464 8.53608C22.9162 8.85489 22.6684 9.11142 22.3543 9.2526C22.0402 9.39378 21.6838 9.4088 21.3589 9.29455C21.034 9.1803 20.7655 8.94552 20.6089 8.63881C20.4524 8.33209 20.4197 7.97691 20.5177 7.64677L20.5665 7.50864L21.6195 5.09039C21.7558 4.76173 22.017 4.5006 22.3457 4.36434C22.6744 4.22808 23.0448 4.22783 23.3737 4.36364Z" fill="url(#paint0_linear_522_797)"/>
<defs>
<linearGradient id="paint0_linear_522_797" x1="25.5057" y1="4.26196" x2="25.5057" y2="46.7829" gradientUnits="userSpaceOnUse">
<stop stop-color="#0E6097"/>
<stop offset="1" stop-color="#0E6097"/>
</linearGradient>
</defs>
</svg>
