<svg width="25" height="26" viewBox="0 0 25 26" fill="none" xmlns="http://www.w3.org/2000/svg">
<path d="M21.0935 5.42149C22.3875 5.42149 23.4373 4.4066 23.4373 3.15569C23.4373 1.90478 22.3875 0.889893 21.0935 0.889893C19.7996 0.889893 18.7498 1.90478 18.7498 3.15569C18.7498 4.4066 19.7996 5.42149 21.0935 5.42149ZM24.658 22.2309C24.199 21.7872 23.4568 21.7872 23.0027 22.2309C22.4119 22.8021 21.5135 22.9578 20.8006 22.6416L14.1697 19.3278L16.572 15.8442C17.1922 14.9473 17.0701 13.7436 16.2791 12.9836L14.3064 11.0718L9.08181 8.56529C8.94021 9.50465 9.24783 10.4535 9.94607 11.1332L13.6131 14.6829L11.3719 17.9306L1.70876 13.1016C1.13748 12.8184 0.429468 13.0308 0.131616 13.5878C-0.166235 14.1448 0.0583741 14.8293 0.634546 15.1125L19.7703 24.6713C20.3513 24.931 20.9666 25.0537 21.5818 25.0537C22.7146 25.0537 23.8279 24.6289 24.658 23.8264C25.1121 23.3874 25.1121 22.6699 24.658 22.2309ZM5.85916 5.21379L5.29763 6.27589C6.00076 6.62048 6.82107 6.50719 7.38748 6.04931L9.69216 7.15388C9.68728 7.1586 9.68728 7.16332 9.6824 7.16805L15.2732 9.84924L16.8552 9.23559L17.1677 10.1372C17.3631 10.7084 17.783 11.1757 18.3396 11.4447L21.1765 12.8137C21.9529 13.1866 22.8855 12.8845 23.2713 12.1386C23.657 11.3928 23.3445 10.4865 22.573 10.1136L20.0291 8.88156L19.1941 6.4647C18.7986 5.32236 17.197 3.79295 15.0681 4.6143L11.1033 6.14844L8.05154 4.68511C8.06619 4.00065 7.69998 3.33507 7.03103 3.00464L6.48904 4.02897H6.47927L4.79958 3.69854C4.71169 3.67966 4.61892 3.70798 4.55544 3.77879C4.46267 3.88264 4.47244 4.03841 4.57986 4.1281L5.85916 5.21379Z" fill="#0E6097"/>
</svg>
