<svg width="41" height="41" viewBox="0 0 41 41" fill="none" xmlns="http://www.w3.org/2000/svg">
<path fill-rule="evenodd" clip-rule="evenodd" d="M26.1851 18.8313C26.4974 19.144 26.6728 19.5679 26.6726 20.0099C26.6725 20.4518 26.4968 20.8756 26.1842 21.188L16.7524 30.6129C16.5986 30.772 16.4146 30.8989 16.2113 30.9862C16.0079 31.0734 15.7892 31.1193 15.5679 31.1212C15.3466 31.123 15.1271 31.0808 14.9223 30.9969C14.7175 30.913 14.5315 30.7892 14.3751 30.6326C14.2186 30.4761 14.0949 30.29 14.0112 30.0851C13.9275 29.8802 13.8854 29.6608 13.8874 29.4395C13.8894 29.2182 13.9355 28.9995 14.0229 28.7962C14.1103 28.5929 14.2374 28.409 14.3966 28.2553L22.6497 20.0084L14.4027 11.7553C14.0992 11.4409 13.9314 11.0198 13.9354 10.5828C13.9393 10.1458 14.1147 9.72786 14.4239 9.41896C14.733 9.11006 15.1511 8.93493 15.5881 8.93129C16.0251 8.92766 16.446 9.09581 16.7602 9.39952L26.1851 18.8313Z" fill="#0E6097"/>
</svg>
