<svg width="41" height="41" viewBox="0 0 41 41" fill="none" xmlns="http://www.w3.org/2000/svg">
<path fill-rule="evenodd" clip-rule="evenodd" d="M13.8305 18.8313C13.5182 19.144 13.3428 19.5679 13.343 20.0099C13.3432 20.4518 13.5188 20.8756 13.8314 21.188L23.2632 30.6129C23.417 30.772 23.601 30.8989 23.8044 30.9862C24.0077 31.0734 24.2265 31.1193 24.4478 31.1212C24.6691 31.123 24.8885 31.0808 25.0933 30.9969C25.2981 30.913 25.4841 30.7892 25.6406 30.6326C25.797 30.4761 25.9207 30.29 26.0044 30.0851C26.0881 29.8802 26.1302 29.6608 26.1282 29.4395C26.1262 29.2182 26.0802 28.9995 25.9927 28.7962C25.9053 28.5929 25.7783 28.409 25.619 28.2553L17.366 20.0084L25.6129 11.7553C25.9164 11.4409 26.0842 11.0198 26.0803 10.5828C26.0763 10.1458 25.9009 9.72786 25.5917 9.41896C25.2826 9.11006 24.8645 8.93493 24.4275 8.93129C23.9905 8.92766 23.5696 9.09581 23.2554 9.39952L13.8305 18.8313Z" fill="#0E6097"/>
</svg>
