<svg width="30" height="30" viewBox="0 0 30 30" fill="none" xmlns="http://www.w3.org/2000/svg">
<path d="M15.0642 18.5362L16.8317 20.3037L22.1367 15L16.833 9.69623L15.0655 11.465L17.3492 13.75L7.92797 13.75L7.92797 16.25L17.3492 16.25L15.0642 18.5362Z" fill="#0E6097"/>
<path fill-rule="evenodd" clip-rule="evenodd" d="M24.7225 24.7225C30.0925 19.3525 30.0925 10.6475 24.7225 5.2775C19.3525 -0.0925003 10.6475 -0.0925006 5.2775 5.2775C-0.0925011 10.6475 -0.0925015 19.3525 5.2775 24.7225C10.6475 30.0925 19.3525 30.0925 24.7225 24.7225ZM22.955 22.955C25.0648 20.8452 26.2501 17.9837 26.2501 15C26.2501 12.0163 25.0648 9.1548 22.955 7.045C20.8452 4.9352 17.9837 3.74993 15 3.74993C12.0163 3.74993 9.1548 4.9352 7.045 7.045C4.9352 9.1548 3.74993 12.0163 3.74993 15C3.74993 17.9837 4.9352 20.8452 7.045 22.955C9.1548 25.0648 12.0163 26.2501 15 26.2501C17.9837 26.2501 20.8452 25.0648 22.955 22.955Z" fill="#0E6097"/>
</svg>
