<svg width="30" height="30" viewBox="0 0 30 30" fill="none" xmlns="http://www.w3.org/2000/svg">
<path d="M23.1646 15.8333L6.66797 4.16663V25.8333H23.1646L13.2663 15.8333H23.1646Z" fill="#22408B"/>
<path d="M20.8333 15L7.5 5.9967V25H20.8333L11.3117 15H20.8333Z" fill="#DD2F45"/>
<path d="M11.9072 20.0341L12.3956 19.3541L11.5622 19.4358L11.6456 18.6024L10.9647 19.0908L10.6197 18.3274L10.2747 19.0908L9.59391 18.6024L9.67641 19.4358L8.84307 19.3541L9.33141 20.0341L8.56807 20.3791L9.33141 20.7241L8.84307 21.4041L9.67641 21.3224L9.59391 22.1558L10.2747 21.6674L10.6197 22.4308L10.9647 21.6674L11.6456 22.1558L11.5622 21.3224L12.3956 21.4041L11.9072 20.7241L12.6706 20.3791L11.9072 20.0341ZM10.6189 14.0783L10.6197 14.0799L10.6206 14.0783L10.6356 14.0799C11.8589 14.0799 12.8522 13.1383 12.9556 11.9408C12.6644 12.4827 12.1948 12.9072 11.6264 13.1424L11.4806 12.9391L11.9897 12.7091L11.4806 12.4791L11.8064 12.0249L11.2497 12.0799L11.3056 11.5233L10.8506 11.8491L10.6206 11.3391L10.3906 11.8491L9.93557 11.5233L9.99141 12.0799L9.43474 12.0249L9.76057 12.4791L9.25141 12.7091L9.76057 12.9391L9.62141 13.1333C9.06358 12.8955 8.60332 12.475 8.31641 11.9408C8.36422 12.5201 8.62697 13.0607 9.05301 13.4562C9.47905 13.8517 10.0376 14.0736 10.6189 14.0783Z" fill="white"/>
</svg>
