<svg width="39" height="39" viewBox="0 0 39 39" fill="none" xmlns="http://www.w3.org/2000/svg">
<path fill-rule="evenodd" clip-rule="evenodd" d="M18.1082 2.92505C19.6896 2.92505 20.9696 4.24286 20.9696 5.82431C20.9696 7.40537 19.6896 8.72318 18.1082 8.72318C16.5267 8.72318 15.2089 7.40537 15.2089 5.82431C15.2089 4.24286 16.5271 2.92505 18.1082 2.92505ZM18.2966 8.98682C19.3847 8.95289 20.2259 9.62993 20.6685 10.3425L23.6805 15.3501L28.9518 17.5715C30.4575 18.2111 29.7423 20.2067 28.0481 19.7551C27.9875 19.7139 27.9246 19.6761 27.8598 19.642L24.3205 27.4732C24.3205 27.4732 25.4499 30.0714 26.8809 33.0085C28.2739 35.9826 24.8852 37.263 23.6427 34.5143L22.4005 31.7281L20.5933 35.6815L19.8402 35.3426L21.9485 30.7492L18.4093 23.0311C18.2587 23.0685 18.1082 23.0311 17.9198 23.0311C17.9198 23.0311 13.8159 32.3681 12.686 34.8157C11.5944 37.263 8.35664 35.7946 9.44825 33.3844C10.5402 30.975 15.7362 19.2657 15.7362 19.2657L11.874 19.3288C11.289 19.3339 11.149 19.2407 11.112 18.8023C11.0523 17.644 10.9501 14.9187 11.2181 13.6555C11.5636 12.0273 11.7699 10.2352 12.9122 9.70208C14.0549 9.16895 16.0373 10.6435 16.0373 10.6435C16.3384 9.66464 17.2798 8.98682 18.2966 8.98682ZM20.6307 14.8602V19.3791L23.8689 26.4576L27.1067 19.3413L22.4005 17.3835C22.1743 17.2704 21.9864 17.1199 21.8354 16.8941L20.6307 14.8602Z" fill="#F3F3F3"/>
</svg>
