<svg width="289" height="29" viewBox="0 0 289 29" fill="none" xmlns="http://www.w3.org/2000/svg">
<path d="M34.5032 10.3549C34.5129 10.9862 32.1985 10.6868 32.0614 11.0247C31.5057 11.5128 32.9385 11.6239 32.5166 12.0836C21.9921 12.3547 11.2511 12.6056 0.753321 13.4843C2.65048 13.8208 4.64695 14.2239 6.53341 14.0184C9.70533 13.6722 12.9736 13.6606 16.1758 13.5947C22.8969 13.4663 29.4894 12.9137 36.274 13.0778C36.7741 13.0892 37.2743 13.0888 38.7248 13.1048C36.6378 13.3557 34.9381 13.2595 34.2128 14.0078C39.9126 14.2611 45.3037 13.7846 50.9904 13.7103C51.1544 13.9562 51.3349 14.2262 51.5318 14.5142C34.7062 14.6325 17.9796 14.8412 0.709164 15.9787C4.01933 16.7059 6.7562 16.4979 9.2915 16.4246C14.6288 16.281 19.9178 15.9879 25.2225 15.7844C25.9731 15.7569 27.1071 15.7456 27.4889 15.8987C29.2152 16.6084 30.887 16.21 32.9889 16.126C31.8598 15.6967 31.0192 16.3186 29.9583 15.7591C34.298 15.3604 38.4251 16.0966 42.5125 15.8975C46.6333 15.6928 50.8679 15.7454 55.5876 15.6723C54.0128 16.3398 51.9466 16.2158 50.6961 16.2079C46.7613 16.1824 42.8898 16.4554 38.9556 16.3703C34.838 16.2833 30.7839 16.4947 26.7138 16.6344C24.1116 16.7248 21.4957 16.5472 18.9131 16.3758C18.0467 16.3186 18.5281 16.5145 18.3932 16.644C17.972 17.0442 16.6719 16.9942 15.5716 16.9761C11.5539 16.9021 7.66603 17.157 3.79406 17.4775C3.22662 17.5249 2.54358 17.4697 2.50669 17.7908C2.46987 18.106 3.17057 18.072 3.68642 18.167C6.68159 18.73 9.58932 18.1487 12.5238 18.1691C14.1744 18.1814 15.8819 17.569 17.2897 18.436C17.538 18.5936 18.3397 18.4774 18.9572 18.4246C22.4955 18.1182 26.1956 18.2662 29.7847 17.8889C31.5709 17.7002 34.1689 17.9968 36.4179 18.1764C39.5333 18.425 42.7067 17.942 45.9255 17.8822C48.6439 17.8347 51.5298 17.7236 54.2314 17.6879C59.8348 17.6126 65.4576 17.2876 71.756 17.6904C67.8826 18.1419 64.3145 18.1265 60.93 18.0951C53.2274 18.0103 45.7973 18.9228 38.0481 18.5337C32.3141 19.8639 25.4865 19.0622 19.2947 19.5775C15.4394 19.8983 11.3215 19.8351 7.31836 19.9577C6.98478 19.9659 6.70004 20.0819 6.46394 20.3234C22.2462 19.5624 38.198 20.0538 54.4442 19.5599C50.5829 20.4284 45.9261 19.341 42.3437 20.6234C48.6865 21.5389 54.819 20.356 60.9003 20.7922C58.6594 21.3808 55.2432 21.2002 53.5988 22.1348C53.2632 22.3276 53.4935 22.61 54.5097 22.6986C52.6544 23.101 51.7854 21.7635 49.9933 22.4881C49.8959 22.2429 49.8315 22.0338 49.7505 21.8245C49.1019 21.6685 48.1961 22.1587 48.5096 22.4598C48.5756 22.5201 48.4914 22.5966 48.4906 22.668C33.7505 22.6783 19.1393 23.089 4.14206 23.7276C5.42071 24.2061 6.37024 24.288 7.42098 24.2639C12.9751 24.1167 18.5458 23.9815 24.1001 23.8284C26.5853 23.7605 29.1202 23.717 31.5714 23.7142C37.5075 23.7082 43.3787 23.5406 49.2822 23.4627C56.3365 23.3678 63.4375 23.5711 70.5231 23.661C71.5567 23.6724 72.8089 23.5314 73.5193 24.1287C61.7639 24.1302 50.1253 24.127 38.5188 24.2373C26.862 24.3709 15.0381 24.5383 3.6702 25.6933C7.11656 26.1659 10.6348 26.169 13.9545 26.0269C18.0918 25.8462 22.2793 25.6363 26.3979 25.6281C35.4524 25.5969 44.4752 25.4164 53.5295 25.3971C67.503 25.3605 81.4569 25.5798 95.4287 25.692C103.965 25.7623 112.502 25.7849 121.02 25.9918C135.09 26.3255 149.162 26.3793 163.215 26.6949C173.567 26.9281 183.938 26.9709 194.273 27.2396C203.108 27.4739 211.977 27.6787 220.794 27.9843C231.145 28.3425 241.467 28.2835 251.802 28.5046C254.82 28.5676 257.82 28.6602 261.023 28.5169C260.279 27.9847 259.146 27.9126 257.945 27.9173C251.359 27.9281 244.859 27.6123 238.309 27.3198C235.293 27.1854 232.093 27.0548 228.905 27.3055C226.986 27.4571 224.722 27.1285 222.605 27.0456C216.822 26.8151 211.021 26.6262 205.221 26.4432C195.87 26.1437 186.52 25.7191 177.182 25.771C171.145 25.7998 165.148 25.3586 159.143 25.5306C157.308 25.5819 155.694 25.2663 153.963 25.0389C158.581 25.0897 163.199 25.1406 167.817 25.1915C175.336 25.2744 182.856 25.3036 190.375 25.4579C196.693 25.5871 203.011 25.7281 209.327 26.0002C211.361 26.0881 213.578 26.0708 215.745 26.1304C223.68 26.3429 231.648 26.5498 239.584 26.6015C243.803 26.6242 247.971 26.6463 252.119 26.9837C253.902 27.1284 255.36 26.4478 257.241 26.7782C257.088 26.967 256.92 27.1557 256.7 27.4212C258.15 27.4372 259.866 27.6467 260.618 27.4346C263.963 26.5009 268.045 26.8555 271.733 26.5746C273.084 26.4704 274.717 26.5777 275.108 25.9747C275.481 25.3952 273.631 25.3213 272.986 24.8021C276.311 24.2314 276.695 22.6577 279.69 21.7379C280.873 21.8165 280.41 22.9606 282.951 22.3395C282.656 23.3962 279.431 23.9978 280.736 25.0959C282.519 25.2644 283.358 24.7675 283.996 24.3756C286.782 22.6973 288.871 20.803 288.792 18.9086C288.691 15.9422 288.791 12.9125 286.105 9.99498C285.924 9.79053 285.81 9.56896 285.478 9.39858C284.749 9.00946 284.573 8.35848 282.704 8.45698C280.985 8.54523 280.713 9.09003 280.64 9.58941C280.551 10.1839 279.415 10.3619 278.044 10.6445C277.367 10.0416 277.658 9.36006 276.045 8.99097C275.912 8.95973 275.78 8.82728 275.83 8.80997C278.308 7.89051 274.857 7.84654 274.062 7.36142C276.488 6.5843 277.234 5.53857 277.047 4.33967C278.315 4.24051 279.499 4.18806 280.614 4.39684C282.012 4.65637 282.284 4.19492 283.003 4.00039C282.489 3.78036 282.442 3.49403 281.259 3.40955C275.278 2.97447 269.363 2.52227 263.246 2.34173C247.51 1.87659 231.789 1.61406 216.035 1.38094C206.615 1.24143 197.277 1.34694 187.92 1.54158C185.068 1.59948 182.356 1.08133 179.536 1.2408C173.313 1.58309 167.047 1.24611 160.795 1.23676C155.092 1.22752 149.427 0.849519 143.672 1.0243C134.048 1.31721 124.348 0.942379 114.693 0.984865C107.272 1.0222 99.8191 1.01749 92.4307 1.17426C83.0575 1.38062 73.6847 1.55126 64.3118 1.72189C55.5394 1.88128 46.6701 1.75379 38.0433 2.31373C32.4534 2.68087 26.7341 2.6893 21.1596 3.16379C17.9551 3.43811 14.6998 3.78929 11.3804 3.89562C9.72909 3.94888 10.692 4.32867 10.206 4.54958C13.3615 4.1854 16.5954 4.26271 19.6998 3.99919C23.1044 3.71516 26.4733 3.65105 29.8344 4.30139C32.1472 4.74369 34.7849 4.46312 37.1205 4.3519C45.1783 3.97623 53.3004 3.82158 61.3902 3.56536C70.9479 3.26576 80.5364 3.18682 90.1098 2.97671C97.9652 2.80722 105.834 2.94155 113.656 2.81336C122.661 2.66845 131.645 3.02347 140.617 2.89606C145.47 2.83044 150.305 2.87775 155.141 2.87744C158.475 2.87846 161.787 3.50443 165.226 3.10765C164.758 3.20372 164.289 3.3891 163.822 3.38395C155.486 3.28615 147.358 4.0064 138.956 3.83047C133.788 3.71994 128.552 3.7992 123.38 4.02803C120.878 4.13742 118.397 3.80641 115.711 3.90186C109.706 4.12151 103.555 3.96442 97.5182 4.03486C87.7625 4.14769 77.9762 4.0101 68.27 4.1711C57.7133 4.34656 47.203 4.84407 36.7898 5.6106C31.917 5.96777 26.7293 6.14879 21.6098 6.19361C21.1762 6.19479 20.7422 6.2436 20.3572 6.37631C24.0581 6.44686 27.7096 6.46327 31.2801 6.26443C31.7415 6.76373 30.1922 6.63353 30.0038 7.08399C37.7319 7.88367 45.5158 6.63564 53.1289 7.27923C51.455 7.86219 49.1229 7.65191 47.2222 7.64288C41.5366 7.61596 36.0624 8.06773 30.5073 8.30425C28.2719 8.39871 25.9059 8.23569 23.751 8.59303C22.4982 8.79954 20.1551 8.0711 19.8933 9.13406C16.7623 8.79589 14.2008 9.72634 11.1347 9.54965C7.9853 9.36609 5.01305 9.75015 1.97661 9.90724C1.30926 9.94157 0.308135 10.002 0.187559 10.352C0.0328511 10.773 0.982054 10.8847 1.81416 11.0308C4.52694 11.4954 7.08462 10.9043 9.73551 10.9335C10.4524 10.9414 11.3039 10.8436 12.0874 10.8582C19.639 11.0307 27.015 10.4808 34.5031 10.3609C39.2735 10.2169 44.0274 10.0669 48.7978 9.92293C48.8134 10.0184 48.8458 10.108 48.8614 10.2035C44.1243 10.3478 39.4015 10.7126 34.5032 10.3549ZM55.2353 11.3277C51.141 12.1459 46.9264 11.7899 42.8409 11.8163C46.8289 11.5566 50.8166 11.3207 55.2353 11.3277Z" fill="url(#paint0_linear_959_1115)" fill-opacity="0.81"/>
<defs>
<linearGradient id="paint0_linear_959_1115" x1="0.164112" y1="12.48" x2="288.847" y2="15.6607" gradientUnits="userSpaceOnUse">
<stop stop-color="#FFDD86"/>
<stop offset="1" stop-color="#1EA3FC"/>
</linearGradient>
</defs>
</svg>
