<svg width="22" height="22" viewBox="0 0 22 22" fill="none" xmlns="http://www.w3.org/2000/svg">
<path d="M10.9987 12.3748C11.6065 12.3748 12.1894 12.1334 12.6192 11.7036C13.0489 11.2739 13.2904 10.691 13.2904 10.0832C13.2904 9.47538 13.0489 8.89249 12.6192 8.46272C12.1894 8.03295 11.6065 7.7915 10.9987 7.7915C10.3909 7.7915 9.80802 8.03295 9.37824 8.46272C8.94847 8.89249 8.70703 9.47538 8.70703 10.0832C8.70703 10.691 8.94847 11.2739 9.37824 11.7036C9.80802 12.1334 10.3909 12.3748 10.9987 12.3748Z" fill="#0E6097"/>
<path d="M17.4832 3.14318H17.4841C21.0637 6.72277 21.0637 12.5271 17.4841 16.1067L12.5314 21.0594C12.1257 21.4647 11.5758 21.6924 11.0024 21.6924C10.429 21.6924 9.87902 21.4647 9.47337 21.0594L4.54629 16.1324L4.52062 16.1067C0.941042 12.5271 0.941042 6.72277 4.52062 3.14318C8.09929 -0.4364 13.9036 -0.4364 17.4832 3.14318ZM5.49229 4.11485C4.0313 5.57604 3.21054 7.55864 3.21054 9.62493C3.21054 11.6912 4.0313 13.6729 5.49229 15.1341L5.51338 15.1561L5.51521 15.1579L10.445 20.0878C10.5927 20.2352 10.7928 20.318 11.0015 20.318C11.2101 20.318 11.4102 20.2352 11.5579 20.0878L16.5106 15.1341C17.9544 13.6693 18.7604 11.6932 18.7531 9.63652C18.7457 7.57986 17.9254 5.60953 16.4712 4.15518C15.017 2.70083 13.0467 1.88043 10.9901 1.87288C8.9334 1.86532 6.95717 2.67122 5.49229 4.11485Z" fill="#0E6097"/>
</svg>
