<svg width="24" height="24" viewBox="0 0 24 24" fill="none" xmlns="http://www.w3.org/2000/svg">
<path d="M11.9996 0C8.07538 0 4.85938 3.2064 4.85938 7.11984C4.85938 8.63616 5.3437 10.0454 6.1633 11.2037L11.1282 19.7868C11.8235 20.6952 12.2857 20.5226 12.8639 19.7388L18.3402 10.4196C18.4506 10.2194 18.5375 10.0063 18.6131 9.78864C18.9606 8.9418 19.1393 8.03521 19.1391 7.11984C19.1394 3.2064 15.9243 0 11.9996 0ZM11.9996 3.336C14.1131 3.336 15.7935 5.01264 15.7935 7.11984C15.7935 9.22704 14.1131 10.903 11.9996 10.903C9.88642 10.903 8.20522 9.22728 8.20522 7.11984C8.20522 5.01264 9.88642 3.33624 11.9996 3.33624" fill="#0E6097"/>
<path d="M16.5376 11.7379L16.526 11.7682C16.5296 11.759 16.5325 11.7497 16.5361 11.7406L16.5376 11.7379ZM8.15988 16.5737C4.76964 17.0527 2.39844 18.1987 2.39844 19.8857C2.39844 22.158 6.36036 24 11.9984 24C17.6365 24 21.5984 22.158 21.5984 19.8857C21.5984 18.1987 19.2275 17.0527 15.8375 16.5737L15.3678 17.3734C17.9228 17.7278 19.6784 18.4728 19.6784 19.3373C19.6784 20.5493 16.24 21.5316 11.9984 21.5316C7.75692 21.5316 4.31844 20.5493 4.31844 19.3373C4.3182 18.4757 6.06228 17.7314 8.62524 17.3755C8.47044 17.1082 8.31492 16.8413 8.15988 16.5737Z" fill="#0E6097"/>
</svg>
