<svg width="21" height="22" viewBox="0 0 21 22" fill="none" xmlns="http://www.w3.org/2000/svg">
<path d="M10.2425 11.0114C13.0315 11.0114 15.305 8.52744 15.305 5.50394C15.305 2.50394 13.055 0.148438 10.2425 0.148438C7.465 0.148438 5.18 2.55094 5.18 5.52744C5.1915 8.53894 7.465 11.0114 10.2425 11.0114ZM10.2425 9.24194C8.5315 9.24194 7.0665 7.60194 7.0665 5.52694C7.0665 3.48844 8.508 1.91794 10.2425 1.91794C12 1.91794 13.418 3.46494 13.418 5.50394C13.418 7.57794 11.9765 9.24194 10.2425 9.24194ZM2.883 21.8519H17.602C19.547 21.8519 20.473 21.2654 20.473 19.9769C20.473 16.9059 16.6055 12.4649 10.2425 12.4649C3.879 12.4649 0 16.9064 0 19.9764C0 21.2654 0.926 21.8519 2.883 21.8519ZM2.3205 20.0814C2.0155 20.0814 1.887 19.9994 1.887 19.7534C1.887 17.8314 4.8635 14.2334 10.242 14.2334C15.6215 14.2334 18.586 17.8314 18.586 19.7534C18.586 19.9994 18.469 20.0814 18.1645 20.0814H2.3205Z" fill="#0E6097"/>
</svg>
