<svg width="36" height="36" viewBox="0 0 36 36" fill="none" xmlns="http://www.w3.org/2000/svg">
<path d="M19.5008 30.0233C19.8987 30.0233 20.2802 30.1813 20.5615 30.4626C20.8428 30.7439 21.0008 31.1254 21.0008 31.5233C21.0008 31.9211 20.8428 32.3026 20.5615 32.5839C20.2802 32.8652 19.8987 33.0233 19.5008 33.0233C19.103 33.0233 18.7215 32.8652 18.4402 32.5839C18.1589 32.3026 18.0008 31.9211 18.0008 31.5233C18.0008 31.1254 18.1589 30.7439 18.4402 30.4626C18.7215 30.1813 19.103 30.0233 19.5008 30.0233ZM14.2508 28.5233C14.6487 28.5233 15.0302 28.6813 15.3115 28.9626C15.5928 29.2439 15.7508 29.6254 15.7508 30.0233C15.7508 30.4211 15.5928 30.8026 15.3115 31.0839C15.0302 31.3652 14.6487 31.5233 14.2508 31.5233C13.853 31.5233 13.4715 31.3652 13.1902 31.0839C12.9089 30.8026 12.7508 30.4211 12.7508 30.0233C12.7508 29.6254 12.9089 29.2439 13.1902 28.9626C13.4715 28.6813 13.853 28.5233 14.2508 28.5233ZM24.7508 28.5233C25.1487 28.5233 25.5302 28.6813 25.8115 28.9626C26.0928 29.2439 26.2508 29.6254 26.2508 30.0233C26.2508 30.4211 26.0928 30.8026 25.8115 31.0839C25.5302 31.3652 25.1487 31.5233 24.7508 31.5233C24.353 31.5233 23.9715 31.3652 23.6902 31.0839C23.4089 30.8026 23.2508 30.4211 23.2508 30.0233C23.2508 29.6254 23.4089 29.2439 23.6902 28.9626C23.9715 28.6813 24.353 28.5233 24.7508 28.5233ZM19.5001 9.00751C24.2528 9.00751 26.9491 12.153 27.3413 15.9525H27.4613C30.5198 15.9525 32.9993 18.4253 32.9993 21.4763C32.9993 24.5273 30.5198 27 27.4613 27H11.5388C8.48035 27 6.00085 24.5273 6.00085 21.4763C6.00085 18.4253 8.48035 15.9525 11.5388 15.9525H11.6588C12.0533 12.1283 14.7473 9.00751 19.5001 9.00751ZM19.5001 10.8788C16.3043 10.8788 13.5188 13.4648 13.5188 17.0363C13.5188 17.6025 13.0268 18.0465 12.4628 18.0465H11.3978C9.45235 18.0465 7.8751 19.632 7.8751 21.5873C7.8751 23.5433 9.45235 25.1288 11.3978 25.1288H27.6023C29.5478 25.1288 31.1251 23.5433 31.1251 21.5873C31.1251 19.632 29.5478 18.0473 27.6023 18.0473H26.5373C25.9733 18.0473 25.4813 17.6025 25.4813 17.0363C25.4813 13.419 22.6958 10.8788 19.5001 10.8788ZM6.5326 15.2273C6.62078 15.4406 6.62673 15.6791 6.54929 15.8966C6.47185 16.1141 6.31653 16.2951 6.11335 16.4048L6.0271 16.446L4.29385 17.1675C4.07326 17.2572 3.82673 17.2592 3.60473 17.173C3.38274 17.0869 3.2021 16.9191 3.0998 16.7041C2.99751 16.489 2.98131 16.243 3.05452 16.0164C3.12773 15.7898 3.28482 15.5998 3.4936 15.4853L3.57985 15.444L5.31385 14.7225C5.54232 14.6281 5.7989 14.6283 6.02727 14.7229C6.25563 14.8175 6.43786 14.9989 6.5326 15.2273ZM16.2818 7.99726L16.2353 8.01151C15.5423 8.23801 14.8973 8.53801 14.3078 8.90401C13.5024 8.56318 12.6094 8.4872 11.7579 8.68703C10.9064 8.88687 10.1405 9.35217 9.57075 10.0157C9.00099 10.6793 8.65689 11.5068 8.58816 12.3787C8.51942 13.2507 8.7296 14.1219 9.18835 14.8665C8.62398 15.0682 8.08804 15.342 7.59385 15.681C6.90379 14.4992 6.64508 13.1146 6.86183 11.7634C7.07859 10.4122 7.75738 9.17797 8.78245 8.27131C9.80752 7.36464 11.1154 6.84165 12.483 6.79154C13.8505 6.74143 15.1932 7.16729 16.2818 7.99651M4.1851 8.13076L4.28035 8.16526L6.0196 8.90701C6.4921 9.10651 6.7186 9.65326 6.52585 10.128C6.34585 10.572 5.8636 10.7955 5.41585 10.6613L5.32135 10.6275L3.58135 9.88501C3.35423 9.78792 3.17416 9.60577 3.07968 9.37756C2.9852 9.14935 2.98383 8.89322 3.07585 8.66401C3.25585 8.22076 3.73735 7.99651 4.1851 8.13076ZM9.71185 3.50026L9.7531 3.58726L10.4731 5.31676C10.5634 5.53845 10.5655 5.7863 10.479 6.0095C10.3924 6.23269 10.2237 6.41432 10.0076 6.51713C9.79137 6.61995 9.54404 6.63617 9.31627 6.56247C9.08851 6.48877 8.89757 6.33073 8.7826 6.12076L8.74135 6.03451L8.02135 4.30501C7.93006 4.08316 7.92729 3.83476 8.0136 3.61094C8.09992 3.38711 8.26875 3.20489 8.48535 3.10177C8.70196 2.99866 8.94985 2.98251 9.178 3.05663C9.40615 3.13076 9.59721 3.28953 9.71185 3.50026ZM16.4986 3.08026C16.9501 3.26776 17.1796 3.76276 17.0461 4.22101L17.0116 4.31851L16.2676 6.02551C16.1757 6.25055 16.0007 6.43163 15.779 6.53129C15.5573 6.63094 15.3057 6.64155 15.0764 6.5609C14.8471 6.48025 14.6576 6.31453 14.547 6.09802C14.4365 5.88151 14.4134 5.6308 14.4826 5.39776L14.5171 5.30026L15.2603 3.59326C15.3566 3.36126 15.5409 3.17693 15.773 3.08075C16.005 2.98457 16.2664 2.98439 16.4986 3.08026Z" fill="#0E6097"/>
</svg>
